<svg xmlns="http://www.w3.org/2000/svg" width="118" height="34" viewBox="0 0 118 34" role="img" aria-label="SEO with AI"><title>SEO with AI</title>
<rect x="0.5" y="0.5" width="117" height="33" rx="7" fill="#0D0D0D" stroke="#2B2B2B"/>
<path transform="translate(12.00 8.00) scale(0.7500)" fill="#F59541" d="M8.548 1.156L6.832 2.872v1.682h1.716zm0 3.398v.035H6.832v-.035H3.386L0 7.844v3.577h2.826V8.94c0-.525.429-.954.954-.954h16.476c.525 0 .954.43.954.954v2.48h2.754V7.844l-3.386-3.29H17.3v.035h-1.717v-.035zm7.035 0H17.3V2.872l-1.717-1.716zM8.679 1.188V2.84h6.773V1.188zm11.471 7.07a.834.834 0 00-.132.01l-.543.002c-5.216.014-10.432-.008-15.648.01-.435-.063-.794.436-.716.883v2.264h17.812c-.016-.888.045-1.782-.034-2.666-.104-.342-.427-.502-.739-.502zm-15.422.634a.689.698 0 01.689.698.689.698 0 01-.689.697.689.698 0 01-.688-.697.689.698 0 01.688-.698zm2.134 0a.689.698 0 01.689.698.689.698 0 01-.689.697.689.698 0 01-.688-.697.689.698 0 01.688-.698zM.036 11.645v9.156c0 1.05.858 1.908 1.907 1.908h.883V11.645zm21.174 0v11.064h.882c1.05 0 1.908-.858 1.908-1.908v-9.156zM4.057 13.133v6.85h6.137v-6.85zm13.243.021v3.777l-1.708.977-1.708-.977v-3.758a4.006 4.006 0 000 7.23v2.441h3.457v-2.442a4.006 4.006 0 00-.041-7.248zm-13.243 8.26v1.43h7.925v-1.43z"/>
<path transform="translate(38.00 22.04)" fill="#F0F6FC" d="M5.8 -2.38Q5.8 -2.76 5.64 -3.03Q5.48 -3.31 5.05 -3.54Q4.62 -3.76 3.81 -4.01Q2.94 -4.28 2.25 -4.64Q1.56 -5.01 1.16 -5.54Q0.76 -6.07 0.76 -6.82Q0.76 -7.57 1.18 -8.14Q1.59 -8.72 2.34 -9.04Q3.08 -9.37 4.06 -9.37Q5.08 -9.37 5.83 -8.99Q6.58 -8.61 6.98 -7.97Q7.38 -7.33 7.38 -6.55H5.8Q5.8 -7.01 5.61 -7.36Q5.41 -7.71 5.02 -7.92Q4.63 -8.12 4.04 -8.12Q3.47 -8.12 3.1 -7.95Q2.72 -7.78 2.54 -7.48Q2.35 -7.19 2.35 -6.82Q2.35 -6.48 2.57 -6.21Q2.79 -5.95 3.23 -5.73Q3.67 -5.51 4.35 -5.31Q5.37 -5.01 6.05 -4.61Q6.73 -4.21 7.06 -3.68Q7.4 -3.14 7.4 -2.39Q7.4 -1.61 6.99 -1.05Q6.58 -0.48 5.84 -0.18Q5.1 0.13 4.11 0.13Q3.44 0.13 2.8 -0.05Q2.15 -0.23 1.62 -0.59Q1.1 -0.96 0.79 -1.51Q0.48 -2.06 0.48 -2.79H2.07Q2.07 -2.34 2.22 -2.02Q2.38 -1.71 2.66 -1.51Q2.94 -1.31 3.31 -1.21Q3.68 -1.12 4.11 -1.12Q4.67 -1.12 5.04 -1.28Q5.42 -1.43 5.61 -1.72Q5.8 -2.01 5.8 -2.38ZM14.86 -1.26V0H9.95V-1.26ZM10.4 -9.24V0H8.81V-9.24ZM14.22 -5.38V-4.14H9.95V-5.38ZM14.83 -9.24V-7.97H9.95V-9.24ZM23.52 -4.88V-4.37Q23.52 -2.97 23.05 -1.96Q22.57 -0.96 21.71 -0.42Q20.85 0.13 19.7 0.13Q18.57 0.13 17.71 -0.42Q16.84 -0.96 16.35 -1.96Q15.86 -2.97 15.86 -4.37V-4.88Q15.86 -6.27 16.35 -7.28Q16.83 -8.28 17.7 -8.83Q18.56 -9.37 19.69 -9.37Q20.83 -9.37 21.7 -8.83Q22.57 -8.28 23.05 -7.28Q23.52 -6.27 23.52 -4.88ZM21.93 -4.37V-4.89Q21.93 -5.92 21.66 -6.63Q21.4 -7.34 20.9 -7.7Q20.4 -8.07 19.69 -8.07Q18.99 -8.07 18.49 -7.7Q17.99 -7.34 17.72 -6.63Q17.46 -5.92 17.46 -4.89V-4.37Q17.46 -3.33 17.73 -2.62Q18 -1.9 18.5 -1.54Q19 -1.17 19.7 -1.17Q20.42 -1.17 20.92 -1.54Q21.41 -1.9 21.67 -2.62Q21.93 -3.33 21.93 -4.37ZM30.2 -1.52 31.79 -6.87H32.77L32.5 -5.27L30.9 0H30.02ZM29.27 -6.87 30.51 -1.5 30.61 0H29.63L27.77 -6.87ZM34.25 -1.56 35.45 -6.87H36.94L35.09 0H34.11ZM32.93 -6.87 34.5 -1.59 34.7 0H33.82L32.2 -5.27L31.94 -6.87ZM39.62 -6.87V0H38.09V-6.87ZM37.98 -8.67Q37.98 -9.02 38.22 -9.25Q38.45 -9.48 38.86 -9.48Q39.27 -9.48 39.5 -9.25Q39.74 -9.02 39.74 -8.67Q39.74 -8.33 39.5 -8.1Q39.27 -7.87 38.86 -7.87Q38.45 -7.87 38.22 -8.1Q37.98 -8.33 37.98 -8.67ZM44.45 -6.87V-5.75H40.57V-6.87ZM41.69 -8.55H43.22V-1.9Q43.22 -1.58 43.31 -1.41Q43.41 -1.24 43.57 -1.19Q43.74 -1.13 43.96 -1.13Q44.12 -1.13 44.26 -1.15Q44.41 -1.17 44.5 -1.19L44.5 -0.02Q44.31 0.04 44.06 0.08Q43.81 0.13 43.49 0.13Q42.96 0.13 42.55 -0.06Q42.15 -0.25 41.92 -0.67Q41.69 -1.1 41.69 -1.8ZM47.14 -9.75V0H45.61V-9.75ZM46.87 -3.69 46.38 -3.69Q46.38 -4.65 46.72 -5.39Q47.06 -6.14 47.66 -6.57Q48.26 -7 49.07 -7Q49.75 -7 50.25 -6.74Q50.75 -6.49 51.03 -5.92Q51.3 -5.35 51.3 -4.41V0H49.77V-4.42Q49.77 -4.92 49.62 -5.21Q49.48 -5.5 49.21 -5.63Q48.93 -5.76 48.54 -5.76Q48.13 -5.76 47.81 -5.6Q47.5 -5.43 47.29 -5.15Q47.08 -4.86 46.98 -4.49Q46.87 -4.11 46.87 -3.69ZM59.98 -8.01 57.22 0H55.55L59.03 -9.24H60.09ZM62.29 0 59.52 -8.01 59.4 -9.24H60.47L63.97 0ZM62.16 -3.43V-2.16H57.13V-3.43ZM66.7 -9.24V0H65.11V-9.24Z"/>
</svg>
